<svg xmlns="http://www.w3.org/2000/svg" viewBox="0 0 79.63 35.83"><g id="Layer_2" data-name="Layer 2"><g id="Layer_1-2" data-name="Layer 1"><path d="M3.66,23.83C1,23.83,0,23.14,0,20.33V17.92a1.19,1.19,0,0,1,1.19-1.19H2.81A1.18,1.18,0,0,1,4,17.92V19c0,.93.14,1,1,1h6.43c.89,0,1-.06,1-1V14.82c0-.92-.14-1-1-1H3.63C1,13.83,0,13.14,0,10.33V3.5C0,.69,1,0,3.63,0h9.14c2.64,0,3.63.69,3.63,3.5V5.91A1.18,1.18,0,0,1,15.22,7.1H13.63a1.19,1.19,0,0,1-1.19-1.19V4.79c0-.93-.13-1-1-1H5c-.89,0-1,.06-1,1V9c0,.93.13,1,1,1h7.83c2.64,0,3.63.7,3.63,3.5v6.8c0,2.81-1,3.5-3.63,3.5Z"/><path d="M37.82,1.19V22.64a1.19,1.19,0,0,1-1.19,1.19H35.05a1.19,1.19,0,0,1-1.19-1.19V13.8H24.39v8.84a1.19,1.19,0,0,1-1.19,1.19H21.61a1.18,1.18,0,0,1-1.18-1.19V1.19A1.18,1.18,0,0,1,21.61,0H23.2a1.19,1.19,0,0,1,1.19,1.19V10h9.47V1.19A1.19,1.19,0,0,1,35.05,0h1.58A1.19,1.19,0,0,1,37.82,1.19Z"/><path d="M58.51,22.64a1.19,1.19,0,0,1-1.19,1.19H55.74a1.19,1.19,0,0,1-1.19-1.19V15.58H46v7.06a1.19,1.19,0,0,1-1.19,1.19H43.26a1.19,1.19,0,0,1-1.19-1.19V3.5c0-2.81,1-3.5,3.64-3.5h9.17c2.64,0,3.63.69,3.63,3.5Zm-4-10.86v-7c0-.93-.13-1-1-1H47.06c-.89,0-1,.06-1,1v7Z"/><path d="M79.63,1.19V22.64a1.19,1.19,0,0,1-1.19,1.19h-2.9a1.07,1.07,0,0,1-1-.59l-7.85-16V22.64a1.19,1.19,0,0,1-1.19,1.19H64a1.18,1.18,0,0,1-1.18-1.19V1.19A1.18,1.18,0,0,1,64,0h2.81a1.07,1.07,0,0,1,1,.59l8,16.21V1.19A1.19,1.19,0,0,1,76.86,0h1.58A1.19,1.19,0,0,1,79.63,1.19Z"/><path d="M7.13,34.8v.56a.47.47,0,0,1-.47.47H1.74a.46.46,0,0,1-.46-.47V26.91a.46.46,0,0,1,.46-.47H6.66a.47.47,0,0,1,.47.47v.56a.47.47,0,0,1-.47.47H2.84v2.44h3a.47.47,0,0,1,.47.47v.56a.47.47,0,0,1-.47.47h-3v2.45H6.66A.47.47,0,0,1,7.13,34.8Z"/><path d="M15.09,26.91v8.45a.46.46,0,0,1-.46.47H13.48a.44.44,0,0,1-.38-.23L10,29.29v6.07a.47.47,0,0,1-.47.47H8.92a.47.47,0,0,1-.47-.47V26.91a.47.47,0,0,1,.47-.47H10a.41.41,0,0,1,.38.24l3.13,6.38V26.91a.47.47,0,0,1,.47-.47h.63A.46.46,0,0,1,15.09,26.91Z"/><path d="M20.09,35.36a.47.47,0,0,1-.47.47H19a.46.46,0,0,1-.46-.47V27.94h-2a.46.46,0,0,1-.46-.47v-.56a.46.46,0,0,1,.46-.47h5.49a.47.47,0,0,1,.47.47v.56a.47.47,0,0,1-.47.47h-2Z"/><path d="M29.37,34.8v.56a.47.47,0,0,1-.47.47H24a.47.47,0,0,1-.47-.47V26.91a.47.47,0,0,1,.47-.47H28.9a.47.47,0,0,1,.47.47v.56a.47.47,0,0,1-.47.47H25.08v2.44h3a.47.47,0,0,1,.46.47v.56a.47.47,0,0,1-.46.47h-3v2.45H28.9A.47.47,0,0,1,29.37,34.8Z"/><path d="M36.53,35c.22.41,0,.85-.34.85h-.58a.38.38,0,0,1-.35-.21l-1.9-3.39H32.25v3.13a.46.46,0,0,1-.46.47h-.63a.47.47,0,0,1-.47-.47V26.91a.47.47,0,0,1,.47-.47h4.45c1,0,1.43.28,1.43,1.38v3c0,1.11-.39,1.38-1.43,1.38H35Zm-1.05-6.65c0-.37,0-.39-.41-.39H32.25v2.79h2.82c.37,0,.41,0,.41-.37Z"/><path d="M40.08,35.36a.47.47,0,0,1-.47.47H39a.47.47,0,0,1-.47-.47V26.91a.47.47,0,0,1,.47-.47h4.44c1,0,1.43.28,1.43,1.38v3c0,1.11-.39,1.38-1.43,1.38H40.08Zm3.22-7c0-.37,0-.39-.4-.39H40.08v2.79H42.9c.37,0,.4,0,.4-.37Z"/><path d="M52.07,35c.22.41,0,.85-.34.85h-.59a.4.4,0,0,1-.35-.21l-1.9-3.39h-1.1v3.13a.47.47,0,0,1-.47.47H46.7a.47.47,0,0,1-.47-.47V26.91a.47.47,0,0,1,.47-.47h4.44c1,0,1.43.28,1.43,1.38v3c0,1.11-.39,1.38-1.43,1.38h-.62ZM51,28.33c0-.37,0-.39-.4-.39H47.79v2.79h2.82c.36,0,.4,0,.4-.37Z"/><path d="M55.61,26.91v8.45a.46.46,0,0,1-.46.47h-.63a.47.47,0,0,1-.47-.47V26.91a.47.47,0,0,1,.47-.47h.63A.46.46,0,0,1,55.61,26.91Z"/><path d="M58.63,35.83c-1,0-1.43-.27-1.43-1.38v-1a.47.47,0,0,1,.47-.47h.62a.47.47,0,0,1,.47.47v.44c0,.37.05.39.4.39H61.7c.35,0,.4,0,.4-.39V32.28c0-.36-.05-.39-.4-.39H58.62c-1,0-1.43-.27-1.43-1.38V27.82c0-1.1.39-1.38,1.43-1.38h3.6c1,0,1.43.28,1.43,1.38v.95a.47.47,0,0,1-.47.47h-.62a.47.47,0,0,1-.47-.47v-.44c0-.37-.05-.39-.4-.39H59.15c-.35,0-.4,0-.4.39V30c0,.36,0,.39.4.39h3.08c1,0,1.43.27,1.43,1.37v2.68c0,1.11-.39,1.38-1.43,1.38Z"/><path d="M71.08,34.8v.56a.46.46,0,0,1-.46.47H65.7a.47.47,0,0,1-.47-.47V26.91a.47.47,0,0,1,.47-.47h4.92a.46.46,0,0,1,.46.47v.56a.46.46,0,0,1-.46.47H66.79v2.44h3a.47.47,0,0,1,.47.47v.56a.47.47,0,0,1-.47.47h-3v2.45h3.83A.46.46,0,0,1,71.08,34.8Z"/><path d="M73.74,35.83c-1,0-1.43-.27-1.43-1.38v-1a.46.46,0,0,1,.46-.47h.63a.47.47,0,0,1,.47.47v.44c0,.37,0,.39.4.39H76.8c.36,0,.41,0,.41-.39V32.28c0-.36,0-.39-.41-.39H73.72c-1,0-1.43-.27-1.43-1.38V27.82c0-1.1.39-1.38,1.43-1.38h3.6c1,0,1.43.28,1.43,1.38v.95a.46.46,0,0,1-.46.47h-.63a.47.47,0,0,1-.47-.47v-.44c0-.37,0-.39-.4-.39H74.26c-.36,0-.41,0-.41.39V30c0,.36.05.39.41.39h3.08c1,0,1.43.27,1.43,1.37v2.68c0,1.11-.39,1.38-1.43,1.38Z"/></g></g></svg>