<svg xmlns="http://www.w3.org/2000/svg" width="554" height="192" viewBox="0 0 554 192">
  <defs>
    <style>
      .cls-1 {
        fill-rule: evenodd;
      }
    </style>
  </defs>
  <path id="SHAN_ENTERPRISES" data-name="SHAN ENTERPRISES" class="cls-1" d="M140.726,131.256c13.409,0,18.437-3.52,18.437-17.768V78.96c0-14.247-5.028-17.767-18.437-17.767H101c-4.526,0-5.2-.335-5.2-5.029V34.541c0-4.693.671-5.029,5.2-5.029h32.685c4.525,0,5.2.335,5.2,5.029v5.7a6.009,6.009,0,0,0,6.034,6.034h8.046A6.009,6.009,0,0,0,159,40.24V28c0-14.247-5.029-17.767-18.438-17.767H94.128c-13.409,0-18.438,3.52-18.438,17.767V62.7c0,14.247,5.028,17.767,18.438,17.767h39.725c4.526,0,5.2.335,5.2,5.028v21.454c0,4.694-.67,5.029-5.2,5.029H101.168c-4.526,0-5.2-.335-5.2-5.029v-5.7a6.009,6.009,0,0,0-6.034-6.034H81.892a6.009,6.009,0,0,0-6.034,6.034v12.236c0,14.248,5.029,17.768,18.438,17.768h46.43ZM260.907,10.237h-8.046a6.009,6.009,0,0,0-6.034,6.034V61.025H198.721V16.271a6.009,6.009,0,0,0-6.034-6.034h-8.046a6.009,6.009,0,0,0-6.034,6.034V125.222a6.009,6.009,0,0,0,6.034,6.034h8.046a6.009,6.009,0,0,0,6.034-6.034V80.3h48.106v44.922a6.009,6.009,0,0,0,6.034,6.034h8.046a6.009,6.009,0,0,0,6.034-6.034V16.271A6.009,6.009,0,0,0,260.907,10.237ZM371.2,28c0-14.247-5.028-17.767-18.437-17.767h-46.6c-13.409,0-18.438,3.52-18.438,17.767v97.218a6.009,6.009,0,0,0,6.035,6.034h8.045a6.009,6.009,0,0,0,6.034-6.034V89.352h43.245v35.87a6.009,6.009,0,0,0,6.035,6.034h8.045a6.009,6.009,0,0,0,6.034-6.034V28ZM307.841,70.076V34.541c0-4.693.671-5.029,5.2-5.029H345.89c4.526,0,5.2.335,5.2,5.029V70.076H307.841ZM471.6,10.237h-8.046a6.009,6.009,0,0,0-6.034,6.034V95.554l-40.4-82.3a5.4,5.4,0,0,0-4.86-3.017H398.02a6.009,6.009,0,0,0-6.034,6.034V125.222a6.009,6.009,0,0,0,6.034,6.034h8.046a6.009,6.009,0,0,0,6.034-6.034V46.945l39.893,81.294a5.4,5.4,0,0,0,4.861,3.017H471.6a6.009,6.009,0,0,0,6.034-6.034V16.271A6.009,6.009,0,0,0,471.6,10.237ZM107.32,177.184H87.609V164.513h15.353a2.4,2.4,0,0,0,2.414-2.414v-2.883a2.4,2.4,0,0,0-2.414-2.413H87.609V144.2H107.32a2.4,2.4,0,0,0,2.413-2.414V138.9a2.4,2.4,0,0,0-2.413-2.413H81.977a2.4,2.4,0,0,0-2.414,2.413v43.579a2.4,2.4,0,0,0,2.414,2.413H107.32a2.4,2.4,0,0,0,2.413-2.413V179.6A2.4,2.4,0,0,0,107.32,177.184Zm40.764-40.695h-3.218a2.4,2.4,0,0,0-2.414,2.413v31.712L126.3,137.7a2.162,2.162,0,0,0-1.945-1.206h-5.7a2.4,2.4,0,0,0-2.414,2.413v43.579a2.4,2.4,0,0,0,2.414,2.413h3.218a2.4,2.4,0,0,0,2.413-2.413v-31.31l15.957,32.517a2.161,2.161,0,0,0,1.944,1.206h5.9a2.4,2.4,0,0,0,2.414-2.413V138.9A2.4,2.4,0,0,0,148.084,136.489Zm27.825,7.71h10.124a2.4,2.4,0,0,0,2.414-2.414V138.9a2.4,2.4,0,0,0-2.414-2.413H157.74a2.4,2.4,0,0,0-2.413,2.413v2.883a2.4,2.4,0,0,0,2.413,2.414h10.124v38.282a2.4,2.4,0,0,0,2.414,2.413H173.5a2.4,2.4,0,0,0,2.413-2.413V144.2Zm45.122,32.985H201.32V164.513h15.354a2.4,2.4,0,0,0,2.413-2.414v-2.883a2.4,2.4,0,0,0-2.413-2.413H201.32V144.2h19.711a2.4,2.4,0,0,0,2.414-2.414V138.9a2.4,2.4,0,0,0-2.414-2.413H195.689a2.4,2.4,0,0,0-2.414,2.413v43.579a2.4,2.4,0,0,0,2.414,2.413h25.342a2.4,2.4,0,0,0,2.414-2.413V179.6A2.4,2.4,0,0,0,221.031,177.184Zm31.043-10.861h3.218c5.364,0,7.375-1.408,7.375-7.107V143.6c0-5.7-2.011-7.106-7.375-7.106H232.363a2.4,2.4,0,0,0-2.413,2.413v43.579a2.4,2.4,0,0,0,2.413,2.413h3.218A2.4,2.4,0,0,0,238,182.481V166.323h5.7l9.788,17.5a2.034,2.034,0,0,0,1.81,1.072h3.017c2.012,0,2.883-2.279,1.743-4.358Zm2.548-9.654c0,1.877-.2,1.944-2.078,1.944H238V144.2h14.549c1.81,0,2.078.134,2.078,2.011v10.459Zm23.4,9.654h17.3c5.364,0,7.375-1.408,7.375-7.107V143.6c0-5.7-2.011-7.106-7.375-7.106H272.39a2.4,2.4,0,0,0-2.413,2.413v43.579a2.4,2.4,0,0,0,2.413,2.413h3.218a2.4,2.4,0,0,0,2.414-2.413V166.323Zm16.627-9.654c0,1.877-.2,1.944-2.078,1.944H278.022V144.2h14.549c1.81,0,2.078.134,2.078,2.011v10.459Zm36.876,9.654h3.218c5.363,0,7.375-1.408,7.375-7.107V143.6c0-5.7-2.012-7.106-7.375-7.106H311.814A2.4,2.4,0,0,0,309.4,138.9v43.579a2.4,2.4,0,0,0,2.414,2.413h3.218a2.4,2.4,0,0,0,2.413-2.413V166.323h5.7l9.789,17.5a2.033,2.033,0,0,0,1.81,1.072h3.017c2.011,0,2.883-2.279,1.743-4.358Zm2.547-9.654c0,1.877-.2,1.944-2.078,1.944H317.445V144.2h14.549c1.81,0,2.078.134,2.078,2.011v10.459Zm20.987-20.18h-3.218a2.4,2.4,0,0,0-2.414,2.413v43.579a2.4,2.4,0,0,0,2.414,2.413h3.218a2.4,2.4,0,0,0,2.414-2.413V138.9A2.4,2.4,0,0,0,355.059,136.489Zm36.2,48.405c5.363,0,7.375-1.408,7.375-7.106V163.977c0-5.7-2.012-7.107-7.375-7.107h-15.89c-1.81,0-2.078-.134-2.078-2.011V146.21c0-1.877.268-2.011,2.078-2.011h13.074c1.81,0,2.078.134,2.078,2.011v2.279a2.4,2.4,0,0,0,2.414,2.414h3.218a2.4,2.4,0,0,0,2.414-2.414V143.6c0-5.7-2.012-7.106-7.375-7.106H372.625c-5.363,0-7.374,1.407-7.374,7.106v13.878c0,5.7,2.011,7.107,7.374,7.107h15.89c1.81,0,2.078.134,2.078,2.011v8.582c0,1.877-.268,2.011-2.078,2.011H375.441c-1.81,0-2.078-.134-2.078-2.011v-2.28a2.4,2.4,0,0,0-2.414-2.413h-3.218a2.4,2.4,0,0,0-2.413,2.413v4.9c0,5.7,2.011,7.106,7.375,7.106h18.571Zm42.909-7.71H414.462V164.513h15.354a2.4,2.4,0,0,0,2.413-2.414v-2.883a2.4,2.4,0,0,0-2.413-2.413H414.462V144.2h19.711a2.4,2.4,0,0,0,2.414-2.414V138.9a2.4,2.4,0,0,0-2.414-2.413H408.831a2.4,2.4,0,0,0-2.414,2.413v43.579a2.4,2.4,0,0,0,2.414,2.413h25.342a2.4,2.4,0,0,0,2.414-2.413V179.6A2.4,2.4,0,0,0,434.173,177.184Zm34.328,7.71c5.364,0,7.375-1.408,7.375-7.106V163.977c0-5.7-2.011-7.107-7.375-7.107H452.612c-1.81,0-2.078-.134-2.078-2.011V146.21c0-1.877.268-2.011,2.078-2.011h13.074c1.81,0,2.078.134,2.078,2.011v2.279a2.4,2.4,0,0,0,2.413,2.414H473.4a2.4,2.4,0,0,0,2.413-2.414V143.6c0-5.7-2.011-7.106-7.375-7.106H449.863c-5.363,0-7.375,1.407-7.375,7.106v13.878c0,5.7,2.012,7.107,7.375,7.107h15.89c1.81,0,2.078.134,2.078,2.011v8.582c0,1.877-.268,2.011-2.078,2.011H452.679c-1.81,0-2.078-.134-2.078-2.011v-2.28a2.4,2.4,0,0,0-2.414-2.413h-3.218a2.4,2.4,0,0,0-2.414,2.413v4.9c0,5.7,2.012,7.106,7.375,7.106H468.5Z"/>
</svg>
